<?xml version="1.0" encoding="UTF-8"?><svg xmlns="http://www.w3.org/2000/svg" xmlns:xlink="http://www.w3.org/1999/xlink" fill-opacity="1" color-rendering="auto" color-interpolation="auto" text-rendering="auto" stroke="black" stroke-linecap="square" width="648" stroke-miterlimit="10" shape-rendering="auto" stroke-opacity="1" fill="black" stroke-dasharray="none" font-weight="normal" stroke-width="1" height="451" font-family="'Dialog'" font-style="normal" stroke-linejoin="miter" font-size="12px" stroke-dashoffset="0" image-rendering="auto">
  <!--Generated by ySVG 2.6-->
  <defs id="genericDefs"/>
  <g>
    <defs id="defs1">
      <clipPath clipPathUnits="userSpaceOnUse" id="clipPath1">
        <path d="M0 0 L648 0 L648 451 L0 451 L0 0 Z"/>
      </clipPath>
      <clipPath clipPathUnits="userSpaceOnUse" id="clipPath2">
        <path d="M222 257 L870 257 L870 708 L222 708 L222 257 Z"/>
      </clipPath>
    </defs>
    <g fill="white" text-rendering="geometricPrecision" shape-rendering="geometricPrecision" transform="translate(-222,-257)" stroke="white">
      <rect x="222" width="648" height="451" y="257" clip-path="url(#clipPath2)" stroke="none"/>
    </g>
    <g text-rendering="geometricPrecision" stroke-miterlimit="1.45" shape-rendering="geometricPrecision" transform="matrix(1,0,0,1,-222,-257)" stroke-linecap="butt">
      <ellipse rx="198" fill="none" ry="210" clip-path="url(#clipPath2)" cx="435" cy="482.5"/>
      <ellipse rx="198" fill="none" ry="210" clip-path="url(#clipPath2)" cx="657" cy="482.5"/>
    </g>
    <g fill="rgb(255,153,204)" text-rendering="geometricPrecision" shape-rendering="geometricPrecision" transform="matrix(1,0,0,1,-222,-257)" stroke="rgb(255,153,204)">
      <ellipse rx="74" ry="62" clip-path="url(#clipPath2)" cx="395" cy="361" stroke="none"/>
    </g>
    <g text-rendering="geometricPrecision" stroke-miterlimit="1.45" shape-rendering="geometricPrecision" transform="matrix(1,0,0,1,-222,-257)" stroke-linecap="butt">
      <ellipse rx="74" fill="none" ry="62" clip-path="url(#clipPath2)" cx="395" cy="361"/>
      <text x="374" font-size="14px" y="357.9717" clip-path="url(#clipPath2)" font-family="serif" stroke="none" xml:space="preserve">简化字</text>
      <text x="346" font-size="14px" y="373.4756" clip-path="url(#clipPath2)" font-family="serif" stroke="none" xml:space="preserve">（狭义简体字）</text>
    </g>
    <g fill="rgb(0,204,255)" text-rendering="geometricPrecision" shape-rendering="geometricPrecision" transform="matrix(1,0,0,1,-222,-257)" stroke="rgb(0,204,255)">
      <ellipse rx="74" ry="62" clip-path="url(#clipPath2)" cx="707" cy="366" stroke="none"/>
    </g>
    <g text-rendering="geometricPrecision" stroke-miterlimit="1.45" shape-rendering="geometricPrecision" transform="matrix(1,0,0,1,-222,-257)" stroke-linecap="butt">
      <ellipse rx="74" fill="none" ry="62" clip-path="url(#clipPath2)" cx="707" cy="366"/>
      <text x="672" font-size="14px" y="362.9717" clip-path="url(#clipPath2)" font-family="serif" stroke="none" xml:space="preserve">狭义繁体字</text>
      <text x="651" font-size="14px" y="378.4756" clip-path="url(#clipPath2)" font-family="serif" stroke="none" xml:space="preserve">（被简化的汉字）</text>
    </g>
    <g fill="yellow" text-rendering="geometricPrecision" shape-rendering="geometricPrecision" transform="matrix(1,0,0,1,-222,-257)" stroke="yellow">
      <ellipse rx="74" ry="62" clip-path="url(#clipPath2)" cx="543" cy="480" stroke="none"/>
    </g>
    <g text-rendering="geometricPrecision" stroke-miterlimit="1.45" shape-rendering="geometricPrecision" transform="matrix(1,0,0,1,-222,-257)" stroke-linecap="butt">
      <ellipse rx="74" fill="none" ry="62" clip-path="url(#clipPath2)" cx="543" cy="480"/>
      <text x="522" font-size="14px" y="476.9717" clip-path="url(#clipPath2)" font-family="serif" stroke="none" xml:space="preserve">传承字</text>
      <text x="484.6689" font-size="14px" y="492.4756" clip-path="url(#clipPath2)" font-family="serif" stroke="none" xml:space="preserve">（未被简化的汉字)</text>
      <text x="310" font-size="16px" y="551.0391" clip-path="url(#clipPath2)" font-family="serif" stroke="none" xml:space="preserve">广义简体字</text>
      <text x="302" font-size="16px" y="568.7578" clip-path="url(#clipPath2)" font-family="serif" stroke="none" xml:space="preserve">（简体中文）</text>
      <text x="674.5" font-size="16px" y="536.1797" clip-path="url(#clipPath2)" font-family="serif" stroke="none" xml:space="preserve">广义繁体字</text>
      <text x="690.5" font-size="16px" y="553.8984" clip-path="url(#clipPath2)" font-family="serif" stroke="none" xml:space="preserve">传统字</text>
      <text x="671.8359" font-size="16px" y="571.6172" clip-path="url(#clipPath2)" font-family="serif" stroke="none" xml:space="preserve">(繁体中文）</text>
      <path fill="none" stroke-dasharray="12,4" d="M633.0135 364.8143 L477.9853 362.3299" stroke-width="2" clip-path="url(#clipPath2)"/>
      <path stroke-dasharray="12,4" d="M468.9865 362.1857 L482.3946 368.0263 L479.1102 362.3479 L482.5749 356.7777 Z" stroke-width="2" clip-path="url(#clipPath2)" stroke="none"/>
    </g>
  </g>
</svg>
